<svg width="65" height="65" viewBox="0 0 65 65" fill="none" xmlns="http://www.w3.org/2000/svg">
<path d="M56.5859 46.0798C57.1687 45.4031 56.3001 44.5533 55.7036 44.2459C55.0185 43.8928 54.1681 43.8784 53.4922 44.2628C52.7816 43.7534 51.3973 43.2406 50.7509 44.118C50.2037 43.8408 49.6246 43.8053 49.0166 43.9003C49.0739 42.9334 49.1962 41.9795 49.1932 41.008C49.1904 40.0702 49.1043 39.1426 48.9818 38.2137C48.759 36.523 48.4876 34.8391 48.1918 33.1597C47.9156 31.592 47.7025 29.976 47.2466 28.4482C46.4234 25.6894 44.5846 23.4123 42.1584 21.8722C42.7037 21.2823 43.3229 20.7113 43.5231 19.9034C43.7261 19.0846 43.4198 18.1806 43.3592 17.3554C43.2588 15.9877 43.4855 14.4033 42.5419 13.2603C41.7571 12.3096 40.5855 12.3264 39.4606 12.208C38.7279 12.1308 38.0624 11.8414 37.3443 11.7449C36.5135 11.6333 35.7204 11.779 34.8933 11.8448C34.5165 11.8747 34.1407 11.8304 33.7675 11.8585C33.3952 11.8866 33.0276 11.9733 32.6611 12.0405C31.8361 12.1919 31.0239 12.1553 30.189 12.1425C29.3653 12.1299 28.546 12.0378 27.7247 12.0194C27.099 12.0054 26.4881 12.1779 25.9869 12.5569C25.7036 12.7711 25.5077 13.0899 25.2032 13.2734C24.946 13.4284 24.6374 13.4834 24.3613 13.5957C24.059 13.7186 23.7704 13.8724 23.518 14.0807C23.3053 14.2563 23.1529 14.5294 22.8909 14.6359C22.27 14.8882 21.5543 14.7102 20.936 15.0475C20.4416 15.3172 20.0444 15.7796 19.8707 16.3161C19.6652 16.9506 19.9341 17.3691 20.0364 17.9763C20.1475 18.6348 19.8465 19.3134 20.232 19.9195C20.3949 20.1756 20.7298 20.3013 20.8656 20.5569C20.9938 20.7982 20.9035 21.3221 20.9395 21.6134C20.9828 21.9633 20.9375 22.4343 21.1151 22.7496C21.2672 23.0196 21.5662 23.2249 21.7887 23.4349C21.682 23.7249 21.225 24.0353 21.014 24.2715C20.757 24.559 20.509 24.8546 20.271 25.1579C19.8062 25.75 19.3789 26.3709 18.994 27.0176C17.631 29.3082 16.8428 31.8889 16.5399 34.5283C16.3592 36.1028 16.369 37.6922 16.191 39.2672C16.0067 40.8969 15.6981 42.5236 15.4496 44.1453C14.6212 44.1801 13.9742 44.5015 13.3173 44.9913C13.2163 43.8218 11.7418 44.0591 11.0273 44.4964C10.6073 44.7535 10.2146 45.1377 10.0513 45.6121C9.98098 45.8164 9.99717 46.03 9.91033 46.2226C9.7923 46.4844 9.65675 46.6245 9.7769 46.9307C9.09277 47.1548 7.91341 47.7403 7.99959 48.6373C8.10696 49.755 10.088 49.359 10.7289 49.1272C10.9132 49.3795 11.1273 49.5598 11.4154 49.6513C11.1774 50.2736 11.0106 50.9046 11.7939 51.1814C12.6813 51.495 13.5235 51.1101 14.1993 50.5429C14.3822 50.8269 14.5841 51.0951 14.9039 51.23C15.2399 51.3717 15.507 51.4648 15.8217 51.6648C15.6523 52.6019 16.192 53.1119 17.1514 53.112C18.0357 53.1121 18.8077 52.7152 19.3117 51.9882C19.6449 52.1387 20.0132 52.1336 20.3539 52.1965C21.0662 53.3816 23.1895 53.4594 24.1573 52.3588C24.3075 52.3588 24.4537 52.3588 24.5927 52.3588C25.0811 53.327 25.5837 53.3805 26.8018 52.6019C27.9135 53.19 29.02 53.1568 30.1097 52.523C31.0436 52.9828 33.2683 53.2439 33.1886 51.67C33.3494 51.7041 33.4686 51.7294 33.5902 51.7553C33.1218 52.6835 33.7944 53.1279 34.6886 53.2584C35.5963 53.3909 36.4495 53.1801 37.0364 52.4384C37.8871 53.5191 39.7771 53.0491 40.5595 52.1372C41.4277 53.3505 43.501 53.4625 44.5423 52.4155C45.3268 53.4915 46.615 53.2161 47.9366 51.7224C48.8378 52.3372 50.225 52.4875 51.1593 51.8303C51.484 51.6019 51.6668 51.2461 51.5578 50.8503C51.4989 50.6364 51.3559 50.4498 51.1947 50.3021C51.0839 50.2004 50.8028 50.1017 50.8118 49.9224C51.0893 49.8108 51.5478 50.0498 51.8272 50.1053C52.0864 50.1568 52.357 50.1948 52.6214 50.1628C53.1241 50.102 53.4653 49.7806 53.697 49.3477C54.4026 49.517 55.3574 49.6318 55.9841 49.1659C56.5681 48.7318 56.2483 48.1315 55.97 47.6199C56.3547 47.5472 56.7935 47.3982 56.9583 47.0065C57.1255 46.6091 56.8158 46.3624 56.5859 46.0798ZM55.8177 44.9507C56.0081 45.1347 56.286 45.5467 55.9171 45.7184C55.6805 45.8285 55.2106 45.5864 54.9405 45.5638C55.0472 45.0356 54.0716 45.1658 54.3059 44.6055C54.2202 44.5664 54.1467 44.6584 54.096 44.5685C54.6719 44.3619 55.3806 44.5283 55.8177 44.9507ZM51.389 44.1896C51.6211 44.1422 51.8482 44.1856 52.1064 44.2735C51.8593 44.3843 51.6645 44.5752 51.389 44.445C51.389 44.358 51.389 44.2772 51.389 44.1896ZM51.9933 45.3602C51.872 45.5809 51.7304 45.6508 51.5455 45.563C51.2237 45.9155 50.8752 46.2003 50.3961 46.3199C50.923 46.8432 51.4039 45.57 51.9234 45.7579C51.5731 45.9699 51.2664 46.3549 50.8915 46.5069C50.5185 46.6583 50.0085 46.4807 50.1093 46.0015C50.2432 45.3647 51.5472 44.7183 51.9933 45.3602ZM51.0481 46.9171C50.6454 47.1337 50.2421 47.2192 49.8445 47.3566C50.0497 47.0564 50.4572 46.9043 51.0481 46.9171ZM50.3751 44.5584C50.1301 44.5423 50.2069 44.7138 50.1398 44.8101C49.9986 44.6601 49.85 44.525 49.6378 44.418C49.9126 44.3436 50.1169 44.4144 50.3751 44.5584ZM48.7103 44.8811C49.0222 44.6538 49.5053 44.7926 49.7799 45.2115C49.718 45.3599 49.658 45.5036 49.5927 45.6601C49.3351 45.6152 49.1107 45.441 48.8438 45.5434C48.8258 45.4152 48.8104 45.3058 48.7973 45.2127C48.6624 45.1145 48.642 45.2825 48.5509 45.2861C48.5044 45.1098 48.577 44.9782 48.7103 44.8811ZM50.5188 48.382C50.4413 48.5285 50.3277 48.6004 50.1814 48.6997C49.78 48.4581 49.2006 48.8449 48.8303 48.3522C49.1433 47.7654 50.0055 47.7796 50.5188 48.382ZM49.474 46.2763C49.9815 46.7627 48.87 47.1711 48.5581 47.2195C48.4886 47.1031 48.4258 46.9979 48.3694 46.9032C48.4669 46.4963 49.025 45.846 49.474 46.2763ZM42.734 23.3602C42.6172 23.4343 42.5005 23.5084 42.3837 23.5824C42.5025 23.7872 42.6105 23.82 42.7119 23.8585C42.8449 23.7761 42.9735 23.6964 43.1334 23.5974C43.1052 23.7917 42.9371 23.8351 42.8979 23.9802C43.0127 24.0516 43.1561 24.1814 43.2909 24.199C43.4023 24.2136 43.4825 24.1178 43.5927 24.129C43.5867 24.2689 43.4279 24.3091 43.4017 24.4368C43.4418 24.5154 43.5008 24.5778 43.6036 24.6148C43.7199 24.5755 43.8457 24.5329 44.0344 24.4692C43.9221 24.6832 43.7584 24.7658 43.6371 24.9021C43.7103 25.0494 43.8809 25.1287 43.93 25.3021C43.8527 25.3688 43.7802 25.2173 43.7046 25.3063C43.6182 25.4082 43.7459 25.4095 43.7962 25.4967C43.9517 25.5077 44.0653 25.3433 44.2168 25.4254C44.2521 25.5447 44.1197 25.5706 44.0944 25.6618C44.1157 25.7665 44.2062 25.8159 44.2934 25.8785C44.4557 25.824 44.5585 25.6849 44.7156 25.5599C44.7213 25.7802 44.5472 25.869 44.4772 26.0194C44.5133 26.1243 44.5911 26.1995 44.6975 26.2718C44.8023 26.2248 44.9109 26.1762 45.059 26.1099C45.0163 26.3006 44.8722 26.3656 44.7854 26.477C44.8202 26.6105 44.9393 26.6592 45.0288 26.7348C45.1353 26.6892 45.2368 26.6458 45.35 26.5974C45.3482 26.8053 45.1476 26.8243 45.0641 26.9545C45.0705 27.0636 45.1191 27.16 45.2124 27.2514C45.3286 27.214 45.4317 27.0932 45.6077 27.1707C45.3785 27.3502 45.1616 27.5202 44.9356 27.6972C44.9192 27.812 45.001 27.8922 45.059 28.0005C45.3 27.8983 45.536 27.7981 45.7721 27.698C45.7795 27.7114 45.7869 27.7249 45.7943 27.7383C45.5799 27.8921 45.3656 28.046 45.1409 28.2072C45.1998 28.324 45.2545 28.4322 45.3152 28.5523C45.5829 28.4972 45.7773 28.3056 46.035 28.248C45.7175 28.5445 45.3506 28.7739 44.9726 29.0098C45.0155 29.1014 45.0516 29.1782 45.0866 29.2529C45.2739 29.2267 45.3259 29.1172 45.3225 28.9609C45.5136 29.1921 46.0384 28.7572 46.2816 28.7058C45.9301 28.9861 45.5786 29.2664 45.2156 29.5559C45.2392 29.6274 45.2624 29.698 45.2865 29.7711C45.6613 29.7005 45.981 29.5347 46.332 29.4465C46.0178 29.6404 45.7035 29.8344 45.4038 30.0193C45.3542 30.1424 45.3685 30.239 45.4141 30.3317C45.5174 30.3622 45.5668 30.2448 45.7017 30.2507C45.4726 30.4364 45.3885 30.6505 45.4763 30.9306C45.5985 30.9106 45.7243 30.8901 45.9064 30.8604C45.7252 30.989 45.5679 31.0269 45.3936 31.0781C45.2759 30.8084 45.1758 30.5385 45.1648 30.2704C45.0812 30.1159 44.8796 30.2666 44.9086 30.0335C44.9301 29.8608 45.1773 29.8848 44.963 29.6444C44.8404 29.6179 44.7839 29.798 44.6572 29.7424C44.5283 29.6857 44.6132 29.502 44.5506 29.4041C44.4358 29.3516 44.2568 29.3062 44.276 29.0668C44.4958 28.9932 44.8247 28.839 44.5164 28.6008C44.3745 28.6571 44.27 28.7652 44.1848 28.9129C44.0488 28.8279 43.9753 28.7275 43.9735 28.5798C43.9752 28.5816 43.9838 28.591 43.9838 28.591C43.9823 28.5864 43.9812 28.5818 43.9798 28.5772L43.9766 28.5781C43.8334 28.3142 43.6419 28.0812 43.4876 27.8243C43.3572 27.6075 43.2915 27.1717 43.0966 27.0157C42.9777 27.0223 42.9626 27.1788 42.8192 27.1711C42.8623 26.9291 43.0221 26.6615 42.7158 26.4681C42.5685 26.5145 42.5546 26.7031 42.4101 26.7684C42.3854 26.5863 42.5135 26.4517 42.549 26.2915C42.4601 26.1763 42.3707 26.0612 42.2663 25.9265C42.1493 26.1045 42.0348 26.2788 41.8875 26.5028C41.9583 25.9794 42.5132 25.6301 42.2306 25.0523C41.9347 25.4008 41.7067 25.7619 41.4587 26.1143C41.6697 25.5937 41.858 25.0645 42.175 24.5813C42.1033 24.5138 41.9915 24.4918 41.9497 24.3804C41.7831 24.615 41.629 24.8321 41.4485 25.0864C41.5838 24.3526 42.1459 23.5891 42.734 23.3602ZM42.6015 19.4274C42.2798 20.1693 41.5918 20.4824 40.9391 20.8372C41.4983 20.3728 42.1147 19.9741 42.6015 19.4274ZM21.6901 20.5105C21.6307 20.1853 21.4635 19.9959 21.2414 19.7663C20.9746 19.4906 20.9872 19.2426 20.9648 18.8674C20.9413 18.4736 20.9063 18.0801 20.8343 17.6919C20.7647 17.3167 20.5253 16.886 20.6671 16.5107C20.9373 15.7959 21.7788 15.6184 22.4332 15.4703C22.7382 15.4013 23.0918 15.3784 23.3407 15.1733C23.6133 14.9487 23.7503 14.6413 24.0649 14.4442C24.621 14.0958 25.297 14.0902 25.8207 13.6667C26.3586 13.2316 26.5894 12.7398 27.3614 12.7251C28.1104 12.7108 28.7828 12.8798 29.5403 12.7557C30.3362 12.6253 31.1091 12.9355 31.9124 12.8563C33.5431 12.6956 35.1949 12.1198 36.8564 12.3728C37.2608 12.4344 37.6124 12.6471 38.0276 12.6949C38.4242 12.7405 38.8186 12.7045 39.215 12.6789C40.0644 12.624 40.8815 12.8099 41.6117 13.2521C42.1703 13.5903 42.804 14.1825 42.4011 14.8791C42.0893 15.4183 41.1396 15.5041 41.0988 16.1869C41.5011 15.9458 41.8717 15.7237 42.2423 15.5015C41.873 15.9937 40.8675 16.2328 40.9608 16.96C41.4211 16.6934 41.8437 16.42 42.315 16.051C41.8702 16.7358 41.0062 16.8632 40.7179 17.5654C40.7376 17.5895 40.7573 17.6137 40.7769 17.6378C40.9636 17.5552 41.1502 17.4726 41.3369 17.39C41.102 17.6381 40.7932 17.8051 40.5454 18.0403C40.2571 18.314 40.0109 18.5436 39.6323 18.6938C39.5584 18.8731 39.6008 19.0093 39.689 19.1592C40.2284 18.837 40.7665 18.5156 41.3047 18.1943C41.3205 18.2194 41.3363 18.2445 41.3521 18.2696C40.8032 18.6342 40.2543 18.9988 39.7044 19.3642C39.741 19.5351 39.7702 19.6889 39.8829 19.8298C40.5009 19.4907 41.1176 19.1523 41.7342 18.814C41.7467 18.8363 41.7592 18.8586 41.7717 18.8809C41.0497 19.3215 40.3278 19.7622 39.5991 20.207C39.5925 20.3316 39.6402 20.4423 39.6972 20.5736C40.415 20.1347 41.1257 19.7 41.8364 19.2654C41.8543 19.2937 41.8722 19.3219 41.8901 19.3501C41.309 19.8291 40.6247 20.1812 40.0035 20.6049C39.4263 20.9987 38.7201 21.199 38.1997 21.6756C38.055 21.6185 37.808 21.7566 37.7252 22.02C37.5107 21.8188 37.3808 22.0622 37.2011 22.1017C37.2011 22.19 37.2011 22.2658 37.2011 22.3747C37.141 22.3018 37.1017 22.2541 37.0372 22.176C36.1648 22.7375 35.1782 23.0062 34.1549 23.2513C34.2092 23.0402 34.5117 23.1937 34.518 22.9314C33.6845 23.1893 32.8613 23.444 32.0381 23.6987C32.3673 23.438 32.781 23.3736 33.135 23.1526C32.9861 22.9282 32.4667 23.2391 32.2855 23.3057C31.8906 23.4509 31.4976 23.6044 31.0962 23.7311C30.3091 23.9796 29.4862 24.0339 28.6721 23.8976C27.8846 23.7657 27.1212 23.3119 26.3192 23.6072C25.9734 23.7345 25.6754 23.9091 25.2976 23.9406C24.8655 23.9765 24.4637 23.8443 24.0681 23.6874C23.4225 23.4313 22.5707 23.0813 22.0739 22.581C21.5752 22.0788 21.8069 21.1502 21.6901 20.5105ZM32.5669 24.1797C34.6941 23.5782 36.821 22.9756 38.8269 22.0242C37.9936 22.7542 33.5777 24.2782 32.5669 24.1797ZM35.6737 24.5443C35.3577 24.7276 35.0418 24.9108 34.7259 25.094C34.9941 24.8233 35.2826 24.5882 35.6387 24.4666C35.6503 24.4925 35.662 24.5184 35.6737 24.5443ZM16.3664 42.6495C16.4851 41.8494 16.6014 41.049 16.7114 40.2477C16.9312 38.6448 17.1233 37.038 17.2525 35.4252C17.4818 32.5629 18.1385 29.7602 19.5793 27.2501C19.9514 26.6018 20.3605 25.9649 20.8595 25.4056C21.1606 25.0682 22.1165 23.975 22.631 24.2276C21.8006 25.2182 20.8133 26.0696 20.124 27.1658C20.1497 27.1884 20.1753 27.211 20.201 27.2336C20.9809 26.3465 21.7727 25.1391 22.8641 24.6115C22.8899 24.6382 22.9156 24.6649 22.9414 24.6917C22.5427 25.0728 22.1439 25.4539 21.736 25.8438C22.103 26.2805 22.7663 24.9548 23.2133 25.0301C22.1098 25.9738 21.1675 27.0072 20.4071 28.201C20.4748 28.311 20.5742 28.3516 20.6125 28.3549C21.5693 27.4827 22.4846 26.6535 23.5561 26.0141C23.7027 26.3297 24.0309 26.1856 24.2597 26.3016C24.1249 26.1132 24.0203 25.89 23.734 25.9316C23.7721 25.8123 23.8679 25.7561 23.9692 25.7104C24.3135 25.77 24.6002 26.0394 24.9968 25.9637C24.8804 25.6796 24.6006 25.5822 24.3635 25.3296C24.8488 25.2287 25.1207 25.6672 25.5368 25.6764C25.399 25.389 25.1194 25.2718 24.9218 25.0217C25.3579 24.9972 25.5967 25.3858 26.0027 25.4424C25.8934 25.1521 25.6163 25.0776 25.4734 24.8451C25.8352 24.8174 26.0927 25.1341 26.4417 25.0905C26.4523 24.8839 26.2387 24.8566 26.1646 24.705C26.4198 24.6313 26.6952 25.0286 26.9299 24.6637C26.8943 24.6186 26.8552 24.5689 26.7968 24.495C26.9857 24.4679 27.1505 24.4168 27.3914 24.4731C25.6484 26.2671 23.7632 27.9742 22.6732 30.2683C22.1824 31.3013 21.855 32.4085 21.6897 33.5391C21.6007 34.1479 21.5654 34.76 21.5471 35.3745C21.5359 35.7521 21.5306 36.13 21.5251 36.5077C21.5211 36.7744 21.4491 37.1356 21.6007 37.3763C21.7759 36.4309 21.9446 35.5199 22.1134 34.609C22.0805 35.4261 21.9507 36.2326 21.9414 37.0539C22.3629 35.4465 22.5455 33.7754 23.244 32.2421C22.8479 33.5108 22.6053 34.8089 22.4913 36.1344C22.8721 34.7138 23.1738 33.2398 23.768 31.8886C24.3539 30.5564 25.2176 29.5112 26.1627 28.4224C26.1042 28.3423 26.0155 28.3334 25.9128 28.3154C25.6874 28.5539 25.4579 28.7967 25.2285 29.0395C25.9638 27.9885 26.8143 27.0417 27.7718 26.1889C27.2888 26.9149 26.6819 27.5362 26.0769 28.1589C26.582 28.5525 27.174 27.0997 27.7236 27.0722C27.3784 27.5856 26.9515 27.9723 26.5409 28.4686C26.5895 28.4743 26.6347 28.4756 26.677 28.4731C26.1139 28.7633 25.8826 29.2633 25.4386 29.6536C25.7391 29.6904 26.5762 28.8731 26.677 28.4731C27.0989 28.4481 27.2305 28.047 27.51 27.8973C27.6427 28.3352 27.2354 28.6305 26.9699 28.9484C26.7736 29.1834 26.0972 29.7353 26.1503 30.0699C26.5422 30.0645 26.9569 29.3319 27.1791 29.0693C27.3139 29.1193 27.3766 29.2213 27.4236 29.3598C27.1577 29.7289 26.8871 30.1047 26.622 30.4727C26.7165 30.6497 26.9446 30.5733 27.0417 30.7906C26.8178 31.1853 26.5182 31.5826 26.3365 32.0212C26.4114 32.1931 26.6167 32.1631 26.6871 32.3097C26.6638 32.4922 26.3993 32.509 26.413 32.7296C26.5422 32.8782 26.7471 32.8527 26.9323 32.9243C27.6766 31.6744 28.2558 30.4108 28.5107 28.9722C28.6413 28.2353 28.7875 27.5003 28.9778 26.7762C29.1552 26.1012 29.3314 25.3654 29.7218 24.776C29.6595 25.011 29.5972 25.2459 29.5349 25.4809C29.5509 25.4879 29.5668 25.4949 29.5827 25.5019C29.6497 25.3985 29.7167 25.295 29.7837 25.1916C29.7972 25.1968 29.8108 25.2019 29.8243 25.2071C29.7094 25.7314 29.5946 26.2558 29.4797 26.7801C29.494 26.785 29.5083 26.79 29.5226 26.7949C29.7063 26.4165 29.8901 26.038 30.0738 25.6596C30.1065 25.6703 30.1393 25.681 30.172 25.6918C29.958 26.3151 29.6856 26.9242 29.6536 27.5971C30.0275 27.2144 30.1324 26.7133 30.2241 26.1934C30.4052 26.3598 30.3839 26.5733 30.4795 26.8331C30.7948 25.9348 30.4646 24.8846 31.6565 24.6425C31.4619 24.8293 31.1974 24.9023 31.0539 25.1461C31.3645 25.1644 31.5734 24.9477 31.8836 24.8724C31.7193 25.1488 31.4239 25.2758 31.3789 25.5977C31.6355 25.5803 31.82 25.4035 32.1001 25.3153C31.8593 25.6129 31.5473 25.7733 31.3749 26.0786C31.5882 26.1753 31.7537 26.0569 31.9436 25.9966C31.9024 26.2182 31.5488 26.2942 31.6774 26.5816C31.9019 26.6169 32.0468 26.4166 32.3126 26.3967C32.1571 26.6691 31.8407 26.7474 31.7258 27.0284C31.9926 27.1235 32.1526 26.8297 32.4151 26.8739C32.2296 27.0927 31.9683 27.2212 31.8444 27.5222C32.0983 27.4524 32.3145 27.393 32.5736 27.3218C32.475 27.504 32.3308 27.5592 32.1905 27.6755C32.4867 28.296 32.7839 28.9131 33.1029 29.5223C33.271 29.8432 33.6039 30.9109 34.031 30.8976C33.7449 31.2574 34.1697 31.3019 34.4377 31.2523C33.8358 30.1982 33.2527 29.1768 32.6696 28.1555C33.5678 29.2323 34.1775 30.5076 35.1137 31.5529C34.9663 30.8738 34.4597 30.3834 34.2342 29.7465C34.8221 30.4547 35.4017 31.1666 35.9064 32.0105C35.9292 32.025 35.9984 31.9705 36.1278 31.9659C35.7435 31.2338 35.3764 30.5342 35.0092 29.8347C35.0291 29.8232 35.049 29.8117 35.0689 29.8003C35.5187 30.4999 35.9684 31.1995 36.416 31.8958C36.5512 31.8554 36.6462 31.7996 36.744 31.6792C36.3526 31.1709 36.1159 30.5454 35.6401 30.0846C35.5974 30.0112 35.6845 29.9232 35.5552 29.7482C35.6953 29.8486 35.745 29.8842 35.8005 29.924C36.4372 29.4456 37.1195 29.0311 37.6378 28.4012C37.3973 28.3074 37.2505 28.4035 37.0361 28.532C36.5045 28.8506 35.953 29.1989 35.4925 29.6147C35.4653 29.5813 35.438 29.548 35.4108 29.5147C36.1104 28.887 36.8099 28.2593 37.5095 27.6316C37.4833 27.5968 37.457 27.562 37.4308 27.5272C36.7093 27.9924 35.9877 28.4575 35.2662 28.9226C35.2481 28.9001 35.23 28.8775 35.212 28.855C35.6807 28.4733 36.1314 28.0708 36.6402 27.7218C36.5178 27.643 36.4444 27.7861 36.3224 27.75C36.5253 27.5028 36.8163 27.3732 37.026 27.1479C36.1459 27.3834 35.5912 28.1257 34.8287 28.551C34.9942 28.2853 35.287 28.1281 35.4621 27.8753C36.1112 27.3696 36.7116 26.7878 37.3401 26.2342C36.3287 26.8273 35.3439 27.4547 34.3833 28.1259C35.2511 27.2829 36.2771 26.6217 37.1213 25.7475C36.5545 25.9889 36.063 26.3721 35.4472 26.5373C35.8478 26.2074 36.2484 25.8776 36.649 25.5477C35.7382 25.8158 34.9674 26.3445 34.1494 26.7837C34.5489 26.374 35.0647 26.1107 35.533 25.7913C36.0521 25.4373 36.5514 25.0512 37.0407 24.6575C36.0765 24.9428 35.2042 25.4345 34.2886 25.828C35.1317 25.2297 36.0549 24.7802 36.9971 24.3175C37.6306 24.5433 38.1292 25.0979 38.6145 25.5388C39.1736 26.0468 39.7273 26.5605 40.2834 27.0716C40.7976 27.5443 41.3358 27.9617 41.9051 28.3657C42.3705 28.696 43.117 29.1011 43.3449 29.6544C43.1585 29.545 43.0361 29.3144 42.7665 29.3314C42.7894 29.4674 42.9435 29.3925 42.9735 29.5122C42.9217 29.568 42.863 29.6313 42.7997 29.6995C42.8556 29.7846 42.9103 29.8679 42.9803 29.9747C43.0775 29.8164 43.348 29.9683 43.3847 29.7118C43.4553 29.726 43.5071 29.7636 43.5425 29.8482C43.3332 29.9505 43.1359 30.0757 42.95 30.2311C43.014 30.335 43.076 30.4357 43.142 30.5428C43.3409 30.4364 43.5306 30.3349 43.7843 30.1992C43.6484 30.5088 43.323 30.4586 43.2026 30.7125C43.2252 30.7872 43.2566 30.8915 43.293 31.0124C43.6279 30.9541 43.8874 30.7176 44.251 30.7028C43.9885 30.9279 43.6858 31.0224 43.3844 31.1519C43.4313 31.2942 43.4724 31.419 43.5214 31.5679C43.6755 31.4837 43.9197 31.5926 43.9653 31.3153C44.2214 31.5404 44.4388 31.2395 44.7121 31.243C44.6277 31.4611 44.1061 31.3842 44.1358 31.657C44.1455 31.694 44.1553 31.7311 44.165 31.7682C44.2247 31.8608 44.2843 31.9533 44.3414 32.042C44.5521 32.0476 44.7081 31.8815 44.9769 31.8633C44.7915 32.1382 44.4192 32.0161 44.3365 32.3019C44.108 32.1266 44.0171 32.4143 43.8598 32.3994C43.8447 32.6253 43.9747 32.7798 44.0456 32.9676C44.1354 32.9145 44.2268 32.9221 44.3119 32.9856C44.3413 32.8486 44.4652 32.7466 44.4407 32.5927C44.5926 32.6172 44.5233 32.8873 44.7488 32.802C44.4727 33.1184 44.7791 33.3781 44.7847 33.6817C44.8749 33.6817 44.9582 33.6817 45.0508 33.6817C45.0066 33.8035 44.8983 33.7933 44.8247 33.8484C44.8162 34.0882 44.8882 34.3106 45.0048 34.5611C45.5067 34.3316 46.0653 34.3174 46.5747 34.117C46.6619 34.0827 46.6087 33.9702 46.6581 33.8747C46.6974 34.0006 46.7005 34.1507 46.8914 34.1134C46.2996 34.4074 45.6642 34.5242 45.0691 34.748C45.0014 35.0577 45.1868 35.3061 45.1972 35.6054C45.3979 35.5612 45.6085 35.618 45.6912 35.3897C45.944 35.4904 46.1386 35.4181 46.3204 35.2185C46.3754 35.3654 46.5179 35.2073 46.6545 35.2758C46.5677 35.3808 46.3162 35.3631 46.4486 35.6315C46.2236 35.4098 45.899 35.5027 45.8165 35.7554C45.616 35.5877 45.454 35.7577 45.2688 35.8163C45.236 35.9626 45.2704 36.0997 45.3496 36.2663C45.5096 36.1582 45.7937 36.296 45.8301 35.9693C45.8668 36.0249 45.9059 36.084 45.9687 36.1792C46.0865 36.0093 46.3493 36.1483 46.4418 35.9009C46.6336 36.1486 46.8596 35.8395 47.1371 35.9478C46.5018 36.1373 45.9265 36.3089 45.3302 36.4868C45.355 36.6323 45.3792 36.7736 45.4093 36.9501C46.0773 36.8062 46.7405 36.6632 47.4037 36.5203C47.4077 36.5393 47.4117 36.5583 47.4157 36.5774C46.7508 36.7624 46.0859 36.9475 45.4162 37.134C45.3746 37.2937 45.3939 37.4448 45.4891 37.61C45.8831 37.5389 46.2839 37.4664 46.6847 37.394C46.6889 37.4108 46.6931 37.4275 46.6973 37.4443C46.3002 37.5649 45.9031 37.6856 45.5014 37.8077C45.4887 37.9433 45.4772 38.0651 45.4658 38.1868C45.5279 38.2518 45.5329 38.3427 45.5545 38.4452C46.119 38.3325 46.669 38.2228 47.2189 38.113C46.6966 38.3331 46.1267 38.3906 45.603 38.6102C45.6024 38.8069 45.5504 39.0016 45.7095 39.1858C45.851 39.0837 46.1281 39.2366 46.1562 39.0056C46.8199 39.0305 47.4034 38.7691 48.0318 38.6438C47.7926 36.6588 47.3415 34.7307 47.0691 32.7737C47.732 35.1922 48.2001 37.643 48.3198 40.1865C47.2705 40.3487 46.2736 40.6442 45.272 40.9346C45.2633 40.9855 45.2539 41.0403 45.2434 41.1021C45.0924 40.826 44.9082 41.1181 44.7376 41.0339C44.6978 41.1905 44.6974 41.3201 44.7244 41.4592C45.9165 41.2905 47.0698 40.9797 48.2432 40.7809C48.2501 40.8101 48.2569 40.8393 48.2638 40.8684C47.6979 41.0131 47.132 41.1581 46.5656 41.3013C46.3969 41.344 45.2421 41.5266 45.3139 41.7323C44.9432 41.5704 44.6247 41.8976 44.2905 41.8427C44.2077 41.9541 44.2371 42.0543 44.2544 42.2147C45.6134 41.9464 46.9649 41.6796 48.3165 41.4128C48.3244 41.451 48.3323 41.4892 48.3402 41.5273C46.9809 41.8558 45.6216 42.1842 44.2677 42.5114C44.1951 42.6293 44.2358 42.7408 44.2344 42.9016C45.5596 42.6261 46.8703 42.3537 48.181 42.0813C48.1873 42.1102 48.1935 42.1392 48.1998 42.1682C47.3121 42.3953 46.4228 42.6169 45.5371 42.8518C45.1263 42.9608 44.7169 43.0749 44.3063 43.1846C44.0562 43.2514 43.4969 43.2626 43.5305 43.6315C45.045 43.4603 46.5162 43.0784 48.0127 42.8249C46.5039 43.2786 44.9765 43.6551 43.4379 43.9884C43.3437 44.0676 43.3367 44.183 43.295 44.2922C43.7745 44.362 44.2171 44.1502 44.7698 44.1743C44.2504 44.4522 43.767 44.5383 43.3022 44.6083C43.2143 44.7028 43.1686 44.7848 43.173 44.926C43.38 44.8122 43.6753 44.9552 43.7752 44.5817C43.9411 44.9835 44.68 44.6497 44.9774 44.5923C45.5456 44.4825 46.1169 44.387 46.6927 44.3265C45.7149 44.5816 44.7372 44.8368 43.7381 45.0975C43.7005 45.2039 43.6608 45.316 43.6032 45.4789C44.3727 45.3347 45.102 45.198 45.8313 45.0613C45.3217 45.323 44.7554 45.4267 44.2077 45.5777C43.8661 45.6719 43.3473 45.7263 43.2423 46.1311C43.7557 46.0449 44.2522 45.9615 44.7487 45.8781C42.3675 46.6417 39.8243 46.9964 37.3282 47.0717C36.0606 47.11 34.7925 47.0493 33.5273 46.975C32.2506 46.9 30.9347 46.9194 29.6817 46.6566C31.1891 46.7511 32.7011 46.6987 34.2098 46.7578C35.7124 46.8166 37.2187 46.8213 38.7109 46.6105C35.2002 46.6594 31.7014 46.5812 28.2313 45.9706C30.1242 45.9706 32.0156 46.1758 33.9088 46.2323C34.8486 46.2604 35.7896 46.271 36.7296 46.2471C37.1626 46.2362 37.5955 46.2176 38.0276 46.1882C38.3199 46.1683 38.8825 46.2413 39.0171 45.8967C35.0503 45.9361 31.0922 46.1981 27.1997 45.2857C28.5142 45.4712 29.8324 45.599 31.2602 45.5108C29.975 45.3747 28.5033 45.384 27.2796 44.9337C27.0311 44.8422 26.8822 44.6445 26.6469 44.5287C26.3955 44.4051 26.1129 44.3792 25.8379 44.3565C25.5605 44.3337 24.3031 44.114 24.1933 44.4128C24.946 44.599 25.7583 44.4406 26.4753 44.8273C25.4178 44.8801 24.3636 44.7556 23.3054 44.8222C24.415 45.1425 25.5761 45.1105 26.7768 45.3047C25.2586 45.4141 23.8239 45.1662 22.3746 45.1665C23.2861 45.3933 24.1967 45.6055 25.1632 45.8502C24.3292 45.9014 23.5959 45.6486 22.8482 45.547C22.7765 45.6181 22.7833 45.6932 22.8124 45.7859C23.2212 45.962 23.6711 46.0134 24.1057 46.1243C23.4632 46.1868 22.845 46.0092 22.2108 45.9366C22.1412 46.0337 22.1787 46.1265 22.1843 46.2251C22.532 46.3025 22.8716 46.3782 23.2112 46.4538C21.5689 46.3138 19.9364 46.1261 18.3733 45.5695C19.3726 45.7616 20.3705 45.9591 21.3689 46.0913C21.4427 46.0099 21.459 45.9404 21.412 45.8397C20.3299 45.6187 19.2241 45.4429 18.1673 45.0415C18.8274 45.1424 19.488 45.2398 20.1468 45.3481C20.3916 45.3884 21.4733 45.7497 21.5193 45.3601C20.1686 45.0552 18.7948 44.855 17.4763 44.4243C18.0744 44.4824 18.6754 44.514 19.2532 44.6948C19.3477 44.5974 19.263 44.5088 19.2356 44.4044C18.3925 44.1946 17.5357 44.0116 16.7304 43.6559C17.3761 43.7474 18.0048 43.9307 18.6536 43.9899C18.7482 43.7521 18.5907 43.7342 18.4456 43.6947C17.8268 43.5261 17.1904 43.4175 16.5967 43.1623L16.5947 43.1604L16.5924 43.1603L16.6029 43.1685C16.3377 43.2579 16.4045 43.5762 16.3763 43.795C16.3227 44.2103 16.2296 44.6304 16.1266 45.036C16.089 44.2346 16.2492 43.4386 16.3664 42.6495ZM24.2236 30.3925C23.9881 30.8099 23.7527 31.2273 23.5172 31.6448C23.6442 31.1646 23.8934 30.7491 24.2236 30.3925ZM44.656 47.4044C45.1239 47.3222 45.6011 47.2798 46.0751 47.3325C45.9978 47.5361 45.6686 47.434 45.5116 47.4318C45.2135 47.4277 44.9169 47.4612 44.626 47.5261C44.2504 47.6099 43.6204 47.7513 43.6234 47.1248C43.6274 46.2709 46.2005 46.0864 46.2034 46.9997C46.0618 47.1107 44.0851 47.2829 43.727 47.2038C43.8651 47.6555 44.3153 47.4643 44.656 47.4044ZM43.1833 49.0471C42.9051 48.8672 42.9051 48.8672 42.7714 49.0411C42.6255 48.9739 42.525 48.8586 42.42 48.6859C42.39 48.7948 42.3744 48.8516 42.3526 48.9307C42.0474 48.1776 43.3038 48.2412 43.6876 48.4347C43.7892 48.5991 43.7616 48.7274 43.6269 48.8276C43.6909 48.9092 43.7393 48.9709 43.793 49.0393C43.5617 49.1031 43.4381 48.8791 43.2653 48.8471C43.1329 48.8858 43.2576 48.9993 43.1833 49.0471ZM43.09 49.7295C42.8022 50.1114 42.7358 50.5695 42.4937 50.9966C42.2586 50.4632 42.5776 49.8053 43.09 49.7295ZM41.3337 47.2618C41.2833 47.3774 41.2586 47.4339 41.2126 47.5393C41.0723 47.0205 41.7887 46.9783 42.1468 47.0253C42.6587 47.0925 43.0697 47.3977 43.3706 47.8061C42.7924 47.9708 42.2642 47.7689 41.7003 47.6118C41.7244 47.3454 41.4276 47.4822 41.3337 47.2618ZM39.3205 48.6237C39.2561 48.5857 39.1916 48.5477 39.1287 48.5106C39.3654 47.7042 40.6726 47.4505 40.9278 48.3739C40.5558 48.7091 39.8985 48.702 39.4503 48.894C39.6522 48.7722 39.618 48.5459 39.7654 48.366C39.5468 48.4033 39.4519 48.5406 39.3205 48.6237ZM41.357 48.8353C40.808 48.9681 40.2963 49.2052 39.7673 49.3938C40.2011 48.9386 40.793 48.9261 41.357 48.8353ZM45.9696 46.147C46.3685 45.6822 48.2795 45.2476 48.1102 46.2608C47.4291 46.0094 46.7182 46.3713 45.9696 46.147ZM45.9311 43.8654C46.4165 43.5864 46.9523 43.4939 47.5007 43.448C46.9971 43.6593 46.4711 43.7883 45.9311 43.8654ZM37.0324 49.9714C36.771 49.4049 37.1362 49.0307 37.4308 48.5739C36.8436 48.8744 36.8729 49.3949 36.7749 49.8586C36.4231 49.2572 37.0232 48.415 37.5849 48.2262C37.8619 48.1331 38.2922 48.0855 38.4857 48.3585C38.7118 48.6776 38.4023 49.1337 38.0833 49.2497C38.039 49.5867 37.6849 49.9254 37.2157 50.0833C37.3523 49.8356 37.6781 49.8316 37.8138 49.5438C37.5119 49.6344 37.3043 49.8049 37.0324 49.9714ZM33.1877 47.8713C33.0698 47.8611 33.0124 48.0083 32.886 48.0503C32.7517 48.0204 32.6115 47.9891 32.4653 47.9566C32.4496 47.3236 33.7607 47.2719 34.1613 47.3079C34.4546 47.3343 34.8807 47.4348 34.9906 47.766C35.1233 48.1657 34.6876 48.3386 34.4192 48.0669C34.4634 47.9116 34.6306 47.9936 34.6876 47.8578C34.1907 48.0604 33.6991 48.1953 33.1877 47.8713ZM35.3367 50.9073C34.8873 50.1686 34.3288 49.6224 33.4828 49.4588C34.3076 49.0609 35.4329 50.0609 35.3367 50.9073ZM35.4542 48.9469C35.3361 48.8438 35.2745 48.9909 35.1856 48.9525C35.2764 48.3741 36.1427 48.818 36.343 49.0141C36.2659 49.2854 35.9727 49.9 35.5802 49.6516C35.5244 49.6163 35.4037 49.4019 35.3704 49.3403C35.274 49.1619 35.2311 49.0836 35.4542 48.9469ZM32.1335 50.5029C31.4985 50.3453 30.9109 50.2268 30.5126 49.6908C30.5215 49.5763 30.6636 49.6471 30.6916 49.5491C30.6672 49.5136 30.6396 49.4731 30.613 49.4343C30.7608 49.2368 31.2339 49.1417 31.5405 49.2481C31.8095 49.3415 31.9879 49.5336 32.1533 49.7621C32.349 50.0325 31.9996 50.2203 32.1335 50.5029ZM26.7827 47.2501C26.611 47.6588 26.8275 48.1067 26.6587 48.5292C26.3478 48.5466 26.1286 48.8716 25.7916 48.8023C25.369 48.2031 25.7407 47.1917 26.3905 47.0736C26.8389 46.9922 27.2468 47.3472 27.1803 47.7945C27.1615 47.9204 27.318 48.0563 27.1511 48.1367C27.1631 48.261 27.33 48.1217 27.3012 48.2696C27.2554 48.5049 27.055 48.4522 26.9005 48.5045C26.8034 48.0809 26.923 47.6572 26.7827 47.2501ZM26.4251 49.0527C26.023 49.4764 25.7505 49.979 25.5329 50.5202C25.4065 49.849 25.7131 49.3689 26.4251 49.0527ZM26.4472 46.3186C26.4081 46.49 26.5588 46.5027 26.6047 46.6254C26.4512 46.6149 26.3135 46.6056 26.1889 46.5971C26.1004 46.4792 26.2413 46.4049 26.2352 46.3176C26.0538 46.2703 26.0358 46.4109 25.9728 46.4972C25.8678 46.0697 26.1435 45.7882 26.6461 45.8281C27.3892 45.8872 27.9317 46.2491 28.3004 47.0113C27.6473 46.6927 27.0337 46.5551 26.4472 46.3186ZM29.3769 48.333C29.5736 48.3014 29.7869 48.2913 29.8588 48.551C29.7237 48.521 29.6158 48.5805 29.5587 48.689C29.1142 49.5344 28.9932 49.619 28.1047 49.6653C28.199 48.9646 28.6886 48.4436 29.3769 48.333ZM29.8699 48.5583C30.0201 48.4853 30.0372 48.6184 30.06 48.7035C30.1471 49.0302 29.58 49.6399 29.2141 49.5935C29.4531 49.2537 29.7794 48.9773 29.8699 48.5583ZM30.0508 48.086C30.4489 48.0411 30.7564 48.4517 31.173 48.2697C30.4644 47.8278 29.6592 47.8779 28.8895 47.6C29.4078 47.0225 30.3302 47.1266 30.8991 47.5822C31.1285 47.7658 31.4999 48.1333 31.2117 48.4229C30.9449 48.6911 30.328 48.2372 30.0508 48.086ZM23.7772 46.9885C24.2532 46.5989 24.925 46.6529 25.4361 47.1491C24.88 47.1331 24.3725 46.6254 23.7772 46.9885ZM25.2472 47.4076C25.1796 47.6574 25.1216 47.8719 25.0514 48.131C24.6253 47.8936 24.3575 47.5538 24.1199 47.1012C24.5683 47.0086 24.8933 47.2078 25.2472 47.4076ZM23.5644 48.5006C23.0597 48.1658 22.3437 48.2079 21.76 47.783C22.2232 47.3019 22.9955 47.2102 23.5591 47.5885C23.7839 47.7394 23.9874 47.9975 24.0491 48.2657C24.1293 48.6142 23.8439 48.9372 23.5197 48.6421C23.7514 48.6956 23.8872 48.6399 23.9522 48.4485C23.8024 48.3762 23.7228 48.5161 23.5644 48.5006ZM22.6605 50.1408C23.0272 50.2398 23.3456 50.7758 23.2681 51.2531C23.0646 50.826 22.9008 50.4674 22.6605 50.1408ZM22.9932 51.164C22.6609 51.1304 22.1641 51.1709 21.8789 50.9865C21.6903 50.8645 21.4231 50.4354 21.4847 50.199C21.5798 49.8335 22.1203 49.8891 22.346 50.0602C22.6753 50.31 22.8862 50.7774 22.9932 51.164ZM21.5159 48.9062C22.2829 48.9237 22.8029 49.4131 23.3856 49.7753C22.7758 49.7713 21.5444 49.7095 21.5159 48.9062ZM21.6933 48.7508C22.3062 48.4584 23.322 48.9591 23.4575 49.6196C22.8759 49.252 22.3622 48.9354 21.6933 48.7508ZM20.1156 47.3716C19.8685 47.2492 19.5622 47.2449 19.402 46.9703C19.3124 47.1617 19.5056 47.2156 19.5463 47.3701C19.3154 47.2956 19.1866 47.1746 19.1832 46.9461C19.671 46.2634 20.7969 46.4079 21.4223 47.2468C21.2845 47.3635 21.1862 47.5138 21.167 47.7471C20.7613 47.4645 20.1754 46.8807 19.6602 46.8501C19.643 46.8776 19.6258 46.9052 19.6086 46.9327C19.7776 47.079 19.9466 47.2253 20.1156 47.3716ZM19.6336 48.2554C19.5279 48.2641 19.4386 48.2715 19.3413 48.2795C19.3804 48.3523 19.4607 48.3884 19.4069 48.496C19.1926 48.452 19.0028 48.3394 18.7753 48.2307C19.2086 47.8946 19.4731 47.8749 19.9934 48.1281C19.8278 48.2723 19.7046 48.0245 19.5622 48.0944C19.5074 48.1645 19.5828 48.1852 19.6336 48.2554ZM17.0044 47.6438C17.4868 47.3623 17.9858 47.2416 18.5877 47.6477C17.8443 47.7161 17.2512 47.965 16.6364 48.2507C16.5759 47.894 16.8027 47.7615 17.0044 47.6438ZM16.0882 47.7675C15.8095 47.5946 15.4665 47.4143 15.0861 47.3075C15.0734 47.3565 15.06 47.4085 15.031 47.5209C14.9514 47.1346 14.8675 46.8146 15.3876 46.8168C15.8254 46.8187 16.2948 47.1049 16.6934 47.2675C16.4824 47.4418 16.2953 47.5963 16.0882 47.7675ZM17.2505 45.9565C17.6061 45.7214 18.131 45.8127 18.4836 46.0046C18.95 46.2583 19.0566 46.6109 18.7376 47.0399C18.3985 47.0211 17.0785 46.3873 17.5578 45.9565C17.3879 45.9565 17.3288 45.9565 17.2505 45.9565ZM17.0595 48.7923C17.5975 48.3913 18.7701 48.5741 19.1782 49.1149C19.2803 49.2502 19.4107 49.3952 19.2512 49.5645C19.1099 49.7146 18.9304 49.7848 18.7295 49.6778C18.2563 49.4257 17.7592 49.2993 17.2201 49.3643C17.135 49.3745 17.0379 49.3968 16.9859 49.2926C16.7234 49.0895 16.8805 48.9258 17.0595 48.7923ZM16.7669 46.2819C16.3833 46.4096 16.0331 46.0607 15.6449 46.2467C15.76 46.4072 15.9518 46.2963 16.032 46.4948C15.6891 46.3371 15.1858 46.5312 15.1292 45.9472C15.5426 45.5442 16.8944 45.4027 16.7669 46.2819ZM15.395 44.7471C15.446 44.8764 15.4313 44.9744 15.4093 45.0794C15.2121 45.2264 15.0224 45.0379 14.7979 45.0671C14.7138 45.3465 14.3692 45.1541 14.1988 45.3226C14.4882 44.8978 14.9344 44.8148 15.395 44.7471ZM14.0641 46.2503C14.552 46.6105 14.3338 46.9761 14.0639 47.3569C13.9782 47.2324 13.9027 47.1227 13.8179 46.9995C13.406 47.1699 13.3933 46.6251 13.0669 46.597C13.1253 46.4884 13.1726 46.4003 13.2257 46.3016C13.1673 46.1757 13.106 46.0433 13.0318 45.8832C13.4856 45.7132 13.757 46.0237 14.0641 46.2503ZM12.678 44.6669C12.0719 45.2205 11.0132 45.7965 10.5513 45.8072C10.7451 44.9486 11.7651 44.4104 12.678 44.6669ZM12.7759 44.9241C12.682 45.0656 12.1133 45.4855 11.7096 45.6946C12.1615 45.144 12.4142 44.9674 12.7759 44.9241ZM8.75249 48.7034C9.09577 48.1313 9.65374 47.8764 10.2284 47.4933C9.49267 47.6764 8.99804 48.0627 8.56387 48.5712C8.51804 48.2509 8.7972 47.8655 9.2833 47.6057C9.87884 47.2874 10.4915 47.1907 11.1264 47.5472C10.5072 48.3768 9.68022 48.8932 8.75249 48.7034ZM10.6295 46.8315C10.4967 46.7732 10.5926 46.6552 10.5099 46.6127C10.369 46.6162 10.4887 46.7867 10.352 46.8091C9.81323 45.7777 12.768 46.2602 12.2957 46.7944C11.9062 47.077 11.5741 46.4317 11.3306 46.939C11.1911 46.9504 11.2181 46.8381 11.1759 46.7718C10.9794 46.7512 10.7824 46.7606 10.6295 46.8315ZM11.3205 48.8966C11.5273 48.4038 11.9052 48.0561 12.314 47.7298C11.7578 47.8427 11.489 48.2802 11.2099 48.706C11.0952 48.4008 11.3465 47.9345 11.7815 47.6455C12.4014 47.2336 13.1653 47.2834 13.6979 47.7831C13.608 47.869 13.5368 47.7513 13.4366 47.7799C13.5071 47.9044 13.5862 48.0056 13.5808 48.0509C13.0481 48.5524 12.3571 48.6093 11.79 48.9371C11.6389 49.026 11.4769 49.0403 11.3205 48.8966ZM11.7525 50.635C11.5222 50.4993 11.6041 50.3097 11.6942 50.1493C12.0199 49.5694 12.5554 49.3176 13.1935 49.2416C12.5341 49.5169 11.9742 49.888 11.7525 50.635ZM13.1555 50.6057C12.7334 50.8202 12.3243 50.8989 11.8903 50.6923C12.0632 50.2298 12.385 49.8653 12.813 49.6217C13.0724 49.474 14.1033 49.0443 14.127 49.6816C14.1405 50.0444 13.4188 50.472 13.1555 50.6057ZM14.2157 48.8984C14.2209 48.9373 14.2547 48.9826 14.1885 49.0103C14.044 48.968 13.9257 48.8887 13.8212 48.7395C14.0531 47.7876 15.7819 48.5815 16.2088 48.9291C15.8295 49.068 14.8945 49.0423 14.2157 48.8984ZM15.4297 50.4363C15.2761 50.2387 15.1276 50.0477 14.968 49.8423C15.1334 49.5035 15.6709 49.4262 16.4275 49.7127C16.0298 49.8892 15.7425 50.1445 15.4297 50.4363ZM16.5246 50.1313C16.8956 49.9616 17.382 49.836 17.7871 49.9435C18.3088 50.0819 18.3524 50.7319 17.7565 50.7808C17.4786 50.8037 17.1892 50.7931 16.904 50.8176C16.6754 50.8373 16.372 50.8484 16.2143 50.6507C16.0583 50.7601 16.0591 50.8612 16.1643 51.0069C15.5251 50.8029 16.2192 50.271 16.5246 50.1313ZM18.2879 51.2182C17.5014 51.3398 16.7226 51.4759 16.2719 52.2789C15.8079 51.5706 17.838 51.0675 18.2879 51.2182ZM17.8534 52.4228C17.3829 52.5772 16.8064 52.7212 16.3755 52.3956C16.6445 52.0121 17.0236 51.7308 17.4604 51.564C17.7493 51.4537 18.4769 51.1777 18.7115 51.484C19.0494 51.9253 18.1471 52.3264 17.8534 52.4228ZM20.0663 51.2844C20.082 51.4208 20.2601 51.3693 20.3308 51.5652C19.7405 51.3081 19.3221 50.8389 18.7258 50.7977C18.7326 50.6227 18.8521 50.6607 18.9027 50.6076C18.9253 50.5381 18.8024 50.5096 18.8532 50.4318C19.1483 50.0316 20.5097 50.6852 20.8683 51.4209C20.5275 51.7068 20.3531 51.2096 20.0663 51.2844ZM20.987 51.2911C20.6279 50.6145 20.0256 50.3537 19.325 50.1935C19.9822 49.844 21.1867 50.5408 20.987 51.2911ZM20.1888 49.7404C20.4704 49.651 20.6841 49.5905 20.9156 49.6414C20.992 49.7583 21.0329 49.8762 20.9399 50.013C20.7106 49.9298 20.4853 49.848 20.1888 49.7404ZM20.9256 48.9949C20.5498 48.9742 20.2298 49.1323 19.897 49.2475C19.7822 48.6682 20.6015 48.2267 21.327 48.4503C21.1751 48.6165 20.9351 48.7039 20.9256 48.9949ZM22.702 52.4865C22.649 52.4367 22.5786 52.3706 22.4865 52.2841C22.4602 52.3748 22.4862 52.5444 22.3501 52.5209C22.1863 52.4926 22.3431 52.37 22.2498 52.3046C22.097 52.2538 21.9628 52.2507 21.9116 52.5012C21.7868 52.1155 21.2252 52.1502 21.2341 51.695C21.5419 51.3641 22.8151 51.3669 23.4269 51.7322C22.7215 51.732 22.0768 51.7497 21.3882 51.6696C21.5555 51.9634 22.0691 51.8703 22.3458 51.8709C22.587 51.8715 23.4559 51.6673 23.5953 51.8886C23.5868 52.5064 23.0748 52.4094 22.702 52.4865ZM24.6448 51.6102C24.4763 51.4094 24.0739 50.7309 23.7451 50.9267C23.694 50.7411 23.6506 50.5839 23.6076 50.4278C24.119 50.269 24.6876 50.5014 24.9913 50.9836C24.9602 51.1959 24.7122 51.2697 24.6448 51.6102ZM23.9766 49.2662C24.4371 48.7838 24.6564 48.7864 25.4164 49.246C25.2357 49.5097 25.1291 49.7914 25.0327 50.0963C24.6332 49.8423 24.4118 49.4352 23.9766 49.2662ZM25.6523 51.0655C25.4 51.6267 25.262 52.12 25.5032 52.6694C24.6028 52.6807 25.3299 51.331 25.6523 51.0655ZM26.5832 51.8249C26.3877 52.251 26.1107 52.5989 25.6118 52.6388C25.4297 52.1028 25.6837 50.2631 26.6344 50.7757C27.0053 50.9757 26.7112 51.5457 26.5832 51.8249ZM25.7998 50.3975C26.0131 49.8693 26.8067 48.2802 27.5 49.228C27.4355 49.4319 27.3413 49.6309 27.2254 49.8149C27.303 49.9262 27.3545 49.731 27.442 49.8524C27.3263 49.9886 27.2004 50.1369 27.1088 50.2449C26.6446 50.2272 26.2395 50.3288 25.7998 50.3975ZM29.1184 52.1269C28.7861 52.5013 28.3969 52.2722 28.0406 52.3083C27.9751 52.0309 27.7952 52.0227 27.5819 52.0581C27.5961 51.8356 27.3234 51.7665 27.3165 51.5487C27.556 51.1021 28.5117 50.9811 29.5393 51.3003C28.8198 51.3635 28.1577 51.4217 27.4769 51.4816C27.5598 51.9641 29.4134 51.2321 29.7927 51.512C29.9163 51.8539 29.4065 52.5511 29.1184 52.1269ZM29.4576 50.9209C29.3146 50.8527 29.1677 50.8369 29.1393 50.6624C28.6886 50.764 28.3664 50.5472 28.0255 50.2267C28.7359 50.0173 29.344 50.0437 29.8933 50.5411C29.8017 50.7267 29.6331 50.8119 29.4576 50.9209ZM31.1628 51.8909C30.8612 51.7583 30.0841 51.4255 30.0486 51.0376C30.6965 50.4401 32.2063 50.9839 32.4839 51.9294C32.2167 52.3815 31.5145 52.0454 31.1628 51.8909ZM32.6422 49.35C31.9518 48.5885 33.7993 48.4553 34.2107 48.5353C34.2741 48.6151 34.1869 48.648 34.1888 48.7047C34.275 48.8034 34.4725 48.6898 34.5358 48.9395C33.8938 49.0448 33.1918 48.8674 32.6422 49.35ZM32.9278 50.2387C32.9289 50.1385 33.0479 50.1053 33.0972 50.016C33.0689 49.9276 32.923 49.9645 32.9118 49.844C32.9779 49.6552 33.106 49.5672 33.3233 49.6041C34.1794 49.7497 34.7716 50.2285 35.1791 51.0364C34.6741 51.1154 34.2837 50.882 33.8683 50.7879C33.5775 50.597 33.3787 50.2252 32.9278 50.2387ZM35.4437 52.8146C34.8844 52.8827 34.1155 52.8282 33.8007 52.3071C33.9294 51.1856 35.8128 51.3057 36.3703 51.9576C36.8779 52.5511 35.8732 52.7622 35.4437 52.8146ZM37.0323 51.8924C36.8005 51.6419 36.5596 51.3816 36.2968 51.0978C36.579 50.9585 36.4956 51.2251 36.6145 51.3009C36.7907 51.2427 36.9203 51.3229 36.9593 51.5857C37.0345 51.3046 37.0345 51.3046 36.0642 50.288C36.7818 50.2362 38.058 51.4549 37.0323 51.8924ZM39.5235 50.4876C38.8537 50.4767 38.27 50.5537 37.7044 50.7949C37.7816 50.12 39.2686 49.7599 39.5235 50.4876ZM39.2283 50.6736C38.8066 50.9258 38.3231 50.9399 37.8551 51.0025C38.2831 50.7639 38.7365 50.64 39.2283 50.6736ZM39.6365 51.8372C39.6322 51.8972 39.6278 51.96 39.6243 52.0092C39.4233 52.1956 38.251 52.2756 37.757 52.1323C38.1404 51.7291 39.6263 50.9495 39.8784 51.8897C39.7538 51.9569 39.7273 51.8154 39.6365 51.8372ZM40.1375 51.3818C40.0189 51.2949 39.9111 51.2158 39.8017 51.1356C39.8593 50.9389 40.0016 50.7909 40.0094 50.5736C40.5499 50.5266 40.5568 51.1757 40.1375 51.3818ZM41.1881 49.789C41.1106 49.7299 41.1133 49.5668 40.9351 49.6492C40.9798 49.8153 40.9167 49.9167 40.7149 49.8777C40.6295 49.8464 40.7557 49.7389 40.7087 49.7266C40.4723 49.6855 40.527 49.8994 40.4555 49.9371C40.2713 49.9758 40.3748 49.7342 40.2246 49.77C40.1192 49.7585 40.2236 49.8775 40.1289 49.8899C39.9751 49.8483 39.7969 49.8144 39.6936 49.5774C40.2902 49.3629 40.8759 49.1524 41.4434 48.9484C41.731 49.3059 41.6529 49.537 41.1881 49.789ZM43.4062 52.2877C43.3078 52.3236 43.2561 52.4784 43.1435 52.4789C42.8994 52.4798 43.1271 52.386 43.0452 52.3011C42.8577 52.2202 42.7781 52.3407 42.7389 52.4695C42.544 52.5084 42.6245 52.3548 42.5756 52.3019C41.7188 52.1873 41.5187 52.0516 41.5159 51.5811C41.7534 51.2667 42.361 51.3591 42.7074 51.3699C42.9968 51.379 43.6607 51.3346 43.8137 51.6506L43.8117 51.6508L43.8147 51.6524L43.8152 51.6533L43.8152 51.6505C44.2393 51.8929 43.8263 52.5388 43.4062 52.2877ZM43.8059 51.0051C43.4665 51.0227 43.1339 51.0095 42.7774 50.9061C42.8721 50.4532 43.0312 50.0532 43.3027 49.7023C43.5819 49.6653 43.8349 49.6882 44.0736 49.8376C44.1122 49.9976 44.0616 50.1824 44.2215 50.2941C44.0776 50.5403 43.9468 50.7641 43.8059 51.0051ZM44.3664 48.2692C44.814 47.7441 45.7148 47.8561 46.1922 48.2626C46.7674 48.7523 46.8935 49.4044 46.0839 49.6795C46.0309 49.6219 45.9723 49.5582 45.9065 49.4867C45.8319 49.5162 45.7632 49.5434 45.6993 49.5687C45.5732 49.5018 45.6021 49.3014 45.4753 49.248C45.3309 49.1873 45.3946 49.3574 45.2503 49.3694C45.034 49.3183 44.7777 49.1237 44.5221 48.9164C44.6246 48.8138 44.6717 49.0079 44.8199 48.9018C44.5204 48.7735 44.3408 48.5843 44.3664 48.2692ZM44.7829 51.5089C44.85 51.2744 44.6423 51.2424 44.5422 51.1511C44.4305 50.8739 44.6139 50.6475 44.6675 50.3966C44.8795 50.424 44.8517 50.227 44.9125 50.11C45.4036 50.0808 45.388 50.1862 45.4533 50.5923C45.5506 51.1982 45.0271 51.2215 44.7829 51.5089ZM46.9254 51.0263C46.3618 51.2 45.6771 51.7242 45.1388 52.3962C44.7368 52.1522 46.3374 50.6296 46.9254 51.0263ZM45.2831 52.4505C45.6217 51.8763 46.2126 51.5959 46.7066 51.2068C46.7824 51.1472 46.8943 51.1327 46.9357 51.0302C47.1062 51.0712 47.3068 50.9973 47.4368 51.1681C47.488 51.9581 46.0855 52.8031 45.2831 52.4505ZM46.2744 50.2953C46.7766 49.9509 47.6293 50.1972 47.878 50.8042C47.3459 50.4852 46.8098 50.4333 46.2744 50.2953ZM47.5141 49.0118C47.4573 48.9043 47.5824 48.8136 47.5585 48.7059C47.483 48.6103 47.408 48.817 47.3328 48.7086C47.3117 48.5723 47.5226 48.63 47.5262 48.5218C47.5332 48.3147 47.3546 48.4751 47.2793 48.3767C47.3831 48.2547 47.483 48.1373 47.5829 48.02C47.5886 48.1652 47.8662 49.0804 47.5141 49.0118ZM47.8042 49.1297C47.839 48.9626 47.6666 47.935 47.5827 48.0173L47.5829 48.0189C47.4537 48.062 47.3139 48.0069 47.1546 48.1052C47.1986 47.857 47.3532 47.8003 47.5172 47.7337C47.4264 47.6649 47.4917 47.4748 47.299 47.4894C47.2926 47.509 47.2862 47.5287 47.2798 47.5484C47.2872 47.5633 47.3923 47.5742 47.3986 47.5567C47.3548 47.6944 47.2918 47.7032 47.1711 47.7331C47.005 47.5043 47.205 47.4244 47.3148 47.3122C47.2417 47.1557 47.2242 46.9727 47.0028 46.9253C47.4844 46.4989 48.0346 47.3068 48.1467 47.6963C48.2862 48.1811 48.2156 48.7925 47.8042 49.1297ZM48.4498 50.1379C46.8434 49.1246 50.8712 48.452 50.2682 49.7602C49.5734 49.4629 48.8697 49.3519 48.1536 49.6768C48.6448 49.6362 49.1825 49.5274 49.6507 49.736C49.3007 49.7974 48.6587 49.7888 48.4498 50.1379ZM49.7047 51.6325C49.7437 51.5526 49.776 51.4865 49.8107 51.4154C49.6114 51.3774 49.4583 51.3954 49.4243 51.6141C49.2781 51.6476 49.1545 51.6061 49.0218 51.5673C49.1004 51.4987 49.2124 51.5781 49.2892 51.4676C49.0293 51.4323 48.8165 51.314 48.6364 51.1421C49.0523 50.761 50.4332 50.6502 51.0402 50.9614C51.1197 51.5177 50.0838 51.7007 49.7047 51.6325ZM50.9167 50.7112C50.1495 50.5955 49.4444 50.5739 48.7188 50.8611C49.1896 50.284 50.3759 50.199 50.9167 50.7112ZM50.0938 47.4314C50.6165 47.3184 51.0543 47.0256 51.5278 46.8247C51.9382 47.0812 51.6776 47.5059 51.328 47.6543C50.8907 47.84 50.4834 47.6216 50.0938 47.4314ZM50.9908 48.6814C51.5338 47.8734 52.837 48.7362 53.1057 49.3838C52.5235 49.6662 51.4163 49.2579 50.9908 48.6814ZM52.7451 45.2042C52.4253 45.209 52.4386 44.8888 52.2634 44.7524C52.7898 43.9818 54.8276 45.5612 53.5946 45.9721C53.3719 45.8741 53.3193 45.643 53.1262 45.5322C52.9367 45.4236 52.6195 45.5867 52.7451 45.2042ZM53.1981 46.6074C53.4612 46.439 53.6517 46.5083 53.8044 46.8329C53.6379 46.8856 53.5456 46.6513 53.3746 46.72C53.4256 46.8974 53.6257 46.8897 53.7288 47.0088C53.3785 47.041 53.2988 46.9793 53.1981 46.6074ZM53.7495 48.3459C53.7281 48.3904 53.707 48.4343 53.6859 48.4781C53.6828 48.2746 53.4967 48.2382 53.3861 48.1537C53.44 47.9758 53.5342 48.1068 53.6363 48.095C53.5162 47.9854 53.3528 47.8991 53.4802 47.7175C54.2291 47.4703 55.4207 48.0857 55.5773 48.8011C55.1963 48.957 54.306 48.736 53.7495 48.3459ZM55.7962 48.6726C55.3427 47.8733 54.6452 47.5682 53.8048 47.4959C54.4539 47.0832 55.9372 47.835 55.7962 48.6726ZM55.931 46.8277C55.8453 46.7325 55.608 46.7643 55.476 46.9247C55.3582 46.7812 55.2232 46.716 55.0609 46.8621C54.9424 46.7678 54.8976 46.599 54.7321 46.5835C54.5877 46.6086 54.6213 46.7524 54.5614 46.8845C54.4147 46.5816 54.5218 46.4046 54.7354 46.281C55.2635 45.9754 56.1864 46.2439 56.5123 46.8193C56.3056 46.9515 56.152 47.0733 55.931 46.8277Z" fill="#452B2B"/>
</svg>
