<?xml version="1.0" encoding="UTF-8"?><svg xmlns="http://www.w3.org/2000/svg" viewBox="0 0 218.28 62.75"><defs><style>.d{fill:#fff;}</style></defs><g id="a"/><g id="b"><g id="c"><g><g><path class="d" d="M53.98,51.47c2.7,0,4.44,1.85,4.63,3.83h-1.76c-.16-1.01-1.13-2.14-2.88-2.14-2.14,0-3.48,1.65-3.48,3.95s1.33,3.95,3.45,3.95c1.74,0,2.75-1.18,2.91-2.14h1.76c-.19,1.98-1.97,3.83-4.63,3.83-3.12,0-5.26-2.24-5.26-5.64s2.14-5.64,5.26-5.64Z"/><path class="d" d="M72.43,51.69v10.83h-1.71v-4.59h-5.86v4.59h-1.71v-10.83h1.71v4.6h5.86v-4.6h1.71Z"/><path class="d" d="M82.74,51.47c3.08-.03,5.8,2.16,5.75,5.64,.06,3.24-2.68,5.69-5.75,5.64-3.07,.05-5.82-2.36-5.77-5.61-.06-3.32,2.7-5.72,5.77-5.67Zm0,1.69c-2.4,0-3.99,1.79-3.99,4.01s1.55,3.88,3.99,3.88,3.98-1.73,3.98-3.92-1.57-3.98-3.98-3.98Z"/><path class="d" d="M97.81,51.47c2.7,0,4.44,1.85,4.63,3.83h-1.76c-.16-1.01-1.13-2.14-2.88-2.14-2.14,0-3.48,1.65-3.48,3.95s1.33,3.95,3.45,3.95c1.74,0,2.75-1.18,2.91-2.14h1.76c-.19,1.98-1.97,3.83-4.63,3.83-3.12,0-5.26-2.24-5.26-5.64s2.14-5.64,5.26-5.64Z"/><path class="d" d="M112.08,51.47c3.08-.03,5.8,2.16,5.75,5.64,.06,3.24-2.68,5.69-5.75,5.64-3.07,.05-5.82-2.36-5.77-5.61-.06-3.32,2.7-5.72,5.77-5.67Zm0,1.69c-2.4,0-3.99,1.79-3.99,4.01s1.55,3.88,3.99,3.88,3.98-1.73,3.98-3.92-1.57-3.98-3.98-3.98Z"/><path class="d" d="M130.32,60.88v1.65h-7.96v-10.83h1.71v9.19h6.25Z"/><path class="d" d="M140.9,60.23h-4.43l-.85,2.3h-1.85l4.23-10.83h1.45l4.19,10.83h-1.9l-.85-2.3Zm-.61-1.63l-1.6-4.35-1.61,4.35h3.21Z"/><path class="d" d="M155.27,53.34h-3.88v9.19h-1.71v-9.19h-3.83v-1.65h9.43v1.65Z"/><path class="d" d="M161.29,53.34v2.88h5.64v1.6h-5.64v3.07h6.36v1.65h-8.07v-10.83h8.07v1.65h-6.36Z"/></g><g><path class="d" d="M7.79,10.85l-.32-.63c-.26,2.74-.42,5.58-.53,8.21-.05,2.26-.16,4.58-.16,6.79,0,4.11,.21,7.95,.95,11.11l-.26,.53c-.74-.16-1.63-.37-3.53-.37-1.68,0-3.16,.21-3.84,.37l-.11-.53c1.37-4.9,2.21-11.9,2.32-17.9,.05-1.05,.05-2.21,.05-3.42C2.37,9.95,2.05,4.16,.84,.53l.32-.53c.74,.11,2.16,.32,3.84,.32s3.63-.32,4.32-.32l13.58,25.8C27.49,17.06,31.85,7.74,34.96,0c.74,.05,2.58,.37,4.48,.37s3.16-.21,4.26-.37l.26,.53c-1,3.21-1.37,8.95-1.37,14.16,0,1.32,0,2.53,.05,3.74,.21,6,.89,13.43,2.42,17.9v.53c-.95-.16-2.53-.37-4.79-.37s-4,.26-4.79,.37l-.26-.53c1.11-3.9,1.42-10.06,1.42-15.53v-2.37c-.05-2.9-.16-6.16-.37-9.27l-14.06,27.7h-.84L7.79,10.85Z"/><path class="d" d="M58.7,28.59c-1.05,2.37-1.53,4.27-1.53,5.37s.21,1.84,.63,2.37l-.16,.53c-1.68-.26-2.84-.37-4.37-.37s-2.69,.11-4.21,.37l-.16-.53c1.21-1.32,2.58-4.27,5.74-10.16L67.81,0h.74l14.06,28.49c2.58,4.42,3.26,6.06,4.69,7.79l-.21,.58c-1.74-.32-3.48-.37-5.11-.37-1.84,0-3.63,.05-5.42,.37l-.16-.53c.47-.53,.68-1.26,.68-2.16,0-1.26-.89-3.05-1.9-5-3.37-.79-6.63-1.05-9.85-1.05-2.58,0-4.63,.16-6.63,.47Zm1.9-4.05h12.32l-6.21-12.95-6.11,12.95Z"/><path class="d" d="M126.67,.58c-1.42,3.53-2,12.01-2,17.85s.74,14.64,2,17.85l-.21,.58c-.68-.11-2.11-.37-4.05-.37-2.21,0-3.48,.32-4.21,.37l-.16-.21-19.43-27.38c-.32,3.05-.42,6.21-.42,9.16,0,6,.79,15.06,2.11,17.9l-.21,.53c-.79-.16-2.21-.37-4.27-.37-1.9,0-3.48,.26-4.16,.37l-.16-.53c1.32-2.84,2.05-11.9,2.05-17.9s-.79-15.22-2.05-17.85l.16-.58c.63,.11,2.37,.37,4.16,.37,2.26,0,3.53-.37,4.32-.37l19.48,27.38c.26-3,.37-6.27,.37-8.95,0-5.84-.74-15.01-2.05-17.85l.16-.58c.74,.16,2.21,.37,4.05,.37,1.95,0,3.58-.21,4.32-.37l.21,.58Z"/><path class="d" d="M140.62,28.59c-1.05,2.37-1.53,4.27-1.53,5.37s.21,1.84,.63,2.37l-.16,.53c-1.68-.26-2.84-.37-4.37-.37s-2.69,.11-4.21,.37l-.16-.53c1.21-1.32,2.58-4.27,5.74-10.16L149.73,0h.74l14.06,28.49c2.58,4.42,3.26,6.06,4.69,7.79l-.21,.58c-1.74-.32-3.48-.37-5.11-.37-1.84,0-3.63,.05-5.42,.37l-.16-.53c.47-.53,.68-1.26,.68-2.16,0-1.26-.89-3.05-1.9-5-3.37-.79-6.63-1.05-9.85-1.05-2.58,0-4.63,.16-6.63,.47Zm1.9-4.05h12.32l-6.21-12.95-6.11,12.95Z"/><path class="d" d="M181,10.85l-.32-.63c-.26,2.74-.42,5.58-.53,8.21-.05,2.26-.16,4.58-.16,6.79,0,4.11,.21,7.95,.95,11.11l-.26,.53c-.74-.16-1.63-.37-3.53-.37-1.68,0-3.16,.21-3.84,.37l-.11-.53c1.37-4.9,2.21-11.9,2.32-17.9,.05-1.05,.05-2.21,.05-3.42,0-5.05-.32-10.85-1.53-14.48l.32-.53c.74,.11,2.16,.32,3.84,.32s3.63-.32,4.32-.32l13.58,25.8c4.58-8.74,8.95-18.06,12.06-25.8,.74,.05,2.58,.37,4.48,.37s3.16-.21,4.26-.37l.26,.53c-1,3.21-1.37,8.95-1.37,14.16,0,1.32,0,2.53,.05,3.74,.21,6,.89,13.43,2.42,17.9v.53c-.95-.16-2.53-.37-4.79-.37s-4,.26-4.79,.37l-.26-.53c1.11-3.9,1.42-10.06,1.42-15.53v-2.37c-.05-2.9-.16-6.16-.37-9.27l-14.06,27.7h-.84l-13.58-26.01Z"/></g></g></g></g></svg>